<?xml version="1.0" encoding="iso-8859-1"?>
<!-- Generator: Adobe Illustrator 18.1.0, SVG Export Plug-In . SVG Version: 6.00 Build 0)  -->
<svg version="1.1" id="Layer_1" xmlns="http://www.w3.org/2000/svg" xmlns:xlink="http://www.w3.org/1999/xlink" x="0px" y="0px"
	 viewBox="0 0 326.299 387.875" style="enable-background:new 0 0 326.299 387.875;" xml:space="preserve">
<g style="opacity:0.12;">
	<path style="fill:#AFAFAF;" d="M195.986,335.398c-6.952-1.39-12.542-4.284-17.913-7.625c-12.848-7.994-23.629-18.389-33.553-29.662
		c-28.285-32.13-49.907-68.173-63.313-108.963c-4.395-13.371-7.961-26.938-9.247-41.014c-0.652-7.143-0.428-14.198,2.225-20.988
		c2.722-6.968,7.83-10.618,15.276-10.479c3.05,0.057,6.176,0.529,9.113,1.358c18.007,5.08,31.521,15.699,40.074,32.551
		c6.341,12.493,10.652,25.683,13.536,39.294c3.999,18.872,7.473,37.854,11.139,56.796c4.081,21.087,8.392,42.139,17.03,61.932
		c3.257,7.462,7.56,14.475,11.523,21.616C192.829,331.928,194.328,333.338,195.986,335.398z"/>
	<path style="fill:#AFAFAF;" d="M219.383,250.733c-1.667-3.417-3.485-6.769-4.976-10.261c-5.974-13.994-9.373-28.709-11.832-43.655
		c-3.188-19.38-4.936-38.924-4.512-58.546c0.485-22.437,3.203-44.619,10.789-65.944c1.922-5.402,4.249-10.619,8.042-15.01
		c5.267-6.098,10.852-6.423,16.835-1.041c1.03,0.927,2.063,1.894,2.888,2.998c11.39,15.238,18.615,32.012,17.992,51.391
		c-0.343,10.691-2.46,21.178-6.041,31.254c-5.373,15.115-11.139,30.09-16.669,45.149c-5.009,13.643-9.4,27.484-10.89,42.011
		c-0.722,7.04-0.643,14.162-0.926,21.247C219.851,250.462,219.617,250.598,219.383,250.733z"/>
</g>
</svg>
