<?xml version="1.0" encoding="iso-8859-1"?>
<!-- Generator: Adobe Illustrator 18.1.0, SVG Export Plug-In . SVG Version: 6.00 Build 0)  -->
<svg version="1.1" id="Layer_1" xmlns="http://www.w3.org/2000/svg" xmlns:xlink="http://www.w3.org/1999/xlink" x="0px" y="0px"
	 viewBox="0 0 120 120" style="enable-background:new 0 0 120 120;" xml:space="preserve">
<g>
	<g>
		<rect x="0" y="0" style="fill:none;" width="120" height="120"/>
		<g>
			<path style="fill:#FF3F00;" d="M80.816,43.766H39.184c-0.836,0-1.514,0.678-1.514,1.514v29.44c0,0.837,0.678,1.514,1.514,1.514
				h41.632c0.837,0,1.514-0.678,1.514-1.514V45.28C82.331,44.444,81.653,43.766,80.816,43.766L80.816,43.766z M79.302,73.205H40.698
				V46.795h38.603V73.205z M79.302,73.205"/>
			<path style="fill:#FF3F00;" d="M44.667,53.928l14.539,8.958c0.244,0.15,0.519,0.225,0.794,0.225c0.276,0,0.551-0.075,0.794-0.225
				l14.539-8.958c0.712-0.439,0.934-1.372,0.495-2.084c-0.439-0.712-1.372-0.934-2.084-0.495L60,59.818L46.256,51.35
				c-0.712-0.438-1.645-0.217-2.083,0.495C43.733,52.557,43.954,53.49,44.667,53.928L44.667,53.928z M44.667,53.928"/>
		</g>
	</g>
</g>
</svg>
