<?xml version="1.0" encoding="iso-8859-1"?>
<!-- Generator: Adobe Illustrator 18.1.0, SVG Export Plug-In . SVG Version: 6.00 Build 0)  -->
<svg version="1.1" id="Layer_1" xmlns="http://www.w3.org/2000/svg" xmlns:xlink="http://www.w3.org/1999/xlink" x="0px" y="0px"
	 viewBox="0 0 120 120" style="enable-background:new 0 0 120 120;" xml:space="preserve">
<g>
	<g>
		<g>
			<g>
				<path style="fill:#FF3F00;" d="M71.649,57.083v-8.741c0-6.422-5.227-11.649-11.649-11.649c-6.429,0-11.658,5.227-11.658,11.649
					v8.741c-2.403,0-4.366,1.963-4.366,4.375v17.473c0,2.411,1.963,4.375,4.366,4.375h23.307c2.411,0,4.375-1.965,4.375-4.375
					V61.458C76.024,59.046,74.059,57.083,71.649,57.083L71.649,57.083z M51.259,48.342c0-4.814,3.918-8.732,8.741-8.732
					c4.814,0,8.741,3.918,8.741,8.732v8.741H51.259V48.342z M73.107,78.932c0,0.805-0.654,1.458-1.458,1.458H48.342
					c-0.796,0-1.449-0.654-1.449-1.458V61.458c0-0.805,0.654-1.458,1.449-1.458h23.307c0.805,0,1.458,0.654,1.458,1.458V78.932z
					 M61.458,69.138v-3.314c0-0.803-0.655-1.458-1.458-1.458c-0.805,0-1.458,0.655-1.458,1.458v3.314
					c-0.869,0.506-1.458,1.437-1.458,2.511c0,1.608,1.309,2.917,2.917,2.917c1.608,0,2.908-1.309,2.908-2.917
					C62.908,70.575,62.325,69.644,61.458,69.138L61.458,69.138z M61.458,69.138"/>
			</g>
		</g>
		<rect x="0" y="0" style="fill:none;" width="120" height="120"/>
	</g>
</g>
</svg>
